<svg width="32" height="32" viewBox="0 0 512 512" fill="none" xmlns="http://www.w3.org/2000/svg">
<g clip-path="url(#clip0_96_7)">
<path d="M477.125 340.495C451.117 319.594 427.259 309.433 404.188 309.433C370.813 309.433 346.783 330.663 325.027 352.412C322.525 354.916 319.496 356.083 315.495 356.083C297.162 356.085 264.91 333.126 219.635 287.846C166.371 234.579 146.233 200.7 159.774 187.153C196.483 150.456 207.943 113.669 151.739 43.7708C131.619 18.7286 111.933 6.55762 91.5583 6.55762C64.0801 6.55762 43.1916 28.5224 24.7623 47.9032C21.5761 51.2534 18.5664 54.4182 15.6154 57.3691C-5.21422 78.197 -5.20353 123.627 15.6457 178.901C38.521 239.547 83.6872 305.52 142.826 364.667C188.561 410.398 238.323 447.357 286.736 472.171C329.002 493.836 370.001 505.444 402.178 505.444H402.19C422.327 505.444 438.684 501.051 449.486 492.118C471.429 473.976 512.273 440.371 512 400.455C511.85 379.046 500.119 358.983 477.125 340.495Z" fill="white"/>
</g>
<defs>
<clipPath id="clip0_96_7">
<rect width="512" height="512" fill="white"/>
</clipPath>
</defs>
</svg>
